<?xml version="1.0" standalone="no"?>
<!DOCTYPE svg PUBLIC "-//W3C//DTD SVG 20010904//EN"
 "http://www.w3.org/TR/2001/REC-SVG-20010904/DTD/svg10.dtd">
<svg version="1.0" xmlns="http://www.w3.org/2000/svg"
 width="512.000000pt" height="512.000000pt" viewBox="0 0 512.000000 512.000000"
 preserveAspectRatio="xMidYMid meet">
<metadata>
Created by potrace 1.11, written by Peter Selinger 2001-2013
</metadata>
<g transform="translate(0.000000,512.000000) scale(0.100000,-0.100000)"
fill="#000000" stroke="none">
<path d="M1395 4085 c-348 -78 -674 -423 -819 -868 -63 -193 -60 -129 -63
-1209 l-4 -988 901 0 900 0 0 900 0 900 -511 0 -512 0 6 113 c18 345 189 591
443 639 l61 11 126 254 c70 139 127 255 127 258 0 3 -134 5 -297 4 -210 0
-316 -5 -358 -14z"/>
<path d="M3678 4080 c-334 -82 -662 -437 -796 -860 -70 -220 -65 -144 -69
-1222 l-4 -978 901 0 900 0 0 900 0 900 -512 0 -511 0 6 103 c13 209 87 405
193 511 64 64 166 120 253 137 l63 13 129 258 129 258 -302 -1 c-262 0 -313
-3 -380 -19z"/>
</g>
</svg>
